STARTFONT 2.1
FONT -FontForge-Minecraft-Regular-R-Normal--10-100-75-75-P-56-ISO10646-1
SIZE 10 75 75
FONTBOUNDINGBOX 8 9 0 -2
COMMENT "Generated by fontforge, http://fontforge.sourceforge.net"
COMMENT "Copyright \(c\) 2017 by Jacob Debono."
STARTPROPERTIES 40
FOUNDRY "FontForge"
FAMILY_NAME "Minecraft"
WEIGHT_NAME "Regular"
SLANT "R"
SETWIDTH_NAME "Normal"
ADD_STYLE_NAME ""
PIXEL_SIZE 10
POINT_SIZE 100
RESOLUTION_X 75
RESOLUTION_Y 75
SPACING "P"
AVERAGE_WIDTH 56
CHARSET_REGISTRY "ISO10646"
CHARSET_ENCODING "1"
FONTNAME_REGISTRY ""
CHARSET_COLLECTIONS "ISO10646-1"
FONT_NAME "Minecraft-Regular"
FACE_NAME "Minecraft Regular"
COPYRIGHT "Copyright \(c\) 2017 by Jacob Debono."
FONT_VERSION "001.000"
FONT_ASCENT 8
FONT_DESCENT 2
UNDERLINE_POSITION -1
UNDERLINE_THICKNESS 1
X_HEIGHT 4
CAP_HEIGHT 6
RAW_ASCENT 800
RAW_DESCENT 200
NORM_SPACE 4
RELATIVE_WEIGHT 40
RELATIVE_SETWIDTH 50
SUPERSCRIPT_X 0
SUPERSCRIPT_Y 3
SUPERSCRIPT_SIZE 6
SUBSCRIPT_X 0
SUBSCRIPT_Y 0
SUBSCRIPT_SIZE 6
FIGURE_WIDTH 6
AVG_LOWERCASE_WIDTH 56
AVG_UPPERCASE_WIDTH 59
ENDPROPERTIES
CHARS 157
STARTCHAR space
ENCODING 32
SWIDTH 400 0
DWIDTH 4 0
BBX 1 1 0 0
BITMAP
00
ENDCHAR
STARTCHAR exclam
ENCODING 33
SWIDTH 200 0
DWIDTH 2 0
BBX 1 7 0 0
BITMAP
80
80
80
80
80
00
80
ENDCHAR
STARTCHAR quotedbl
ENCODING 34
SWIDTH 500 0
DWIDTH 5 0
BBX 4 3 0 4
BITMAP
50
50
A0
ENDCHAR
STARTCHAR numbersign
ENCODING 35
SWIDTH 600 0
DWIDTH 6 0
BBX 5 7 0 0
BITMAP
50
50
F8
50
F8
50
50
ENDCHAR
STARTCHAR dollar
ENCODING 36
SWIDTH 600 0
DWIDTH 6 0
BBX 5 7 0 0
BITMAP
20
78
80
70
08
F0
20
ENDCHAR
STARTCHAR percent
ENCODING 37
SWIDTH 600 0
DWIDTH 6 0
BBX 5 7 0 0
BITMAP
88
90
10
20
40
48
88
ENDCHAR
STARTCHAR ampersand
ENCODING 38
SWIDTH 600 0
DWIDTH 6 0
BBX 5 7 0 0
BITMAP
20
50
20
68
B0
90
68
ENDCHAR
STARTCHAR quotesingle
ENCODING 39
SWIDTH 300 0
DWIDTH 3 0
BBX 2 3 0 4
BITMAP
40
40
80
ENDCHAR
STARTCHAR parenleft
ENCODING 40
SWIDTH 500 0
DWIDTH 5 0
BBX 4 7 0 0
BITMAP
30
40
80
80
80
40
30
ENDCHAR
STARTCHAR parenright
ENCODING 41
SWIDTH 500 0
DWIDTH 5 0
BBX 4 7 0 0
BITMAP
C0
20
10
10
10
20
C0
ENDCHAR
STARTCHAR asterisk
ENCODING 42
SWIDTH 500 0
DWIDTH 5 0
BBX 4 3 0 2
BITMAP
90
60
90
ENDCHAR
STARTCHAR plus
ENCODING 43
SWIDTH 600 0
DWIDTH 6 0
BBX 5 5 0 1
BITMAP
20
20
F8
20
20
ENDCHAR
STARTCHAR comma
ENCODING 44
SWIDTH 200 0
DWIDTH 2 0
BBX 1 3 0 -1
BITMAP
80
80
80
ENDCHAR
STARTCHAR hyphen
ENCODING 45
SWIDTH 600 0
DWIDTH 6 0
BBX 5 1 0 3
BITMAP
F8
ENDCHAR
STARTCHAR period
ENCODING 46
SWIDTH 200 0
DWIDTH 2 0
BBX 1 2 0 0
BITMAP
80
80
ENDCHAR
STARTCHAR slash
ENCODING 47
SWIDTH 600 0
DWIDTH 6 0
BBX 5 7 0 0
BITMAP
08
10
10
20
40
40
80
ENDCHAR
STARTCHAR zero
ENCODING 48
SWIDTH 600 0
DWIDTH 6 0
BBX 5 7 0 0
BITMAP
70
88
98
A8
C8
88
70
ENDCHAR
STARTCHAR one
ENCODING 49
SWIDTH 600 0
DWIDTH 6 0
BBX 5 7 0 0
BITMAP
20
60
20
20
20
20
F8
ENDCHAR
STARTCHAR two
ENCODING 50
SWIDTH 600 0
DWIDTH 6 0
BBX 5 7 0 0
BITMAP
70
88
08
30
40
88
F8
ENDCHAR
STARTCHAR three
ENCODING 51
SWIDTH 600 0
DWIDTH 6 0
BBX 5 7 0 0
BITMAP
70
88
08
30
08
88
70
ENDCHAR
STARTCHAR four
ENCODING 52
SWIDTH 600 0
DWIDTH 6 0
BBX 5 7 0 0
BITMAP
18
28
48
88
F8
08
08
ENDCHAR
STARTCHAR five
ENCODING 53
SWIDTH 600 0
DWIDTH 6 0
BBX 5 7 0 0
BITMAP
F8
80
F0
08
08
88
70
ENDCHAR
STARTCHAR six
ENCODING 54
SWIDTH 600 0
DWIDTH 6 0
BBX 5 7 0 0
BITMAP
30
40
80
F0
88
88
70
ENDCHAR
STARTCHAR seven
ENCODING 55
SWIDTH 600 0
DWIDTH 6 0
BBX 5 7 0 0
BITMAP
F8
88
08
10
20
20
20
ENDCHAR
STARTCHAR eight
ENCODING 56
SWIDTH 600 0
DWIDTH 6 0
BBX 5 7 0 0
BITMAP
70
88
88
70
88
88
70
ENDCHAR
STARTCHAR nine
ENCODING 57
SWIDTH 600 0
DWIDTH 6 0
BBX 5 7 0 0
BITMAP
70
88
88
78
08
10
60
ENDCHAR
STARTCHAR colon
ENCODING 58
SWIDTH 200 0
DWIDTH 2 0
BBX 1 6 0 0
BITMAP
80
80
00
00
80
80
ENDCHAR
STARTCHAR semicolon
ENCODING 59
SWIDTH 200 0
DWIDTH 2 0
BBX 1 7 0 -1
BITMAP
80
80
00
00
80
80
80
ENDCHAR
STARTCHAR less
ENCODING 60
SWIDTH 500 0
DWIDTH 5 0
BBX 4 7 0 0
BITMAP
10
20
40
80
40
20
10
ENDCHAR
STARTCHAR equal
ENCODING 61
SWIDTH 600 0
DWIDTH 6 0
BBX 5 4 0 1
BITMAP
F8
00
00
F8
ENDCHAR
STARTCHAR greater
ENCODING 62
SWIDTH 500 0
DWIDTH 5 0
BBX 4 7 0 0
BITMAP
80
40
20
10
20
40
80
ENDCHAR
STARTCHAR question
ENCODING 63
SWIDTH 600 0
DWIDTH 6 0
BBX 5 7 0 0
BITMAP
70
88
08
10
20
00
20
ENDCHAR
STARTCHAR at
ENCODING 64
SWIDTH 700 0
DWIDTH 7 0
BBX 6 7 0 0
BITMAP
78
84
B4
B4
BC
80
78
ENDCHAR
STARTCHAR A
ENCODING 65
SWIDTH 600 0
DWIDTH 6 0
BBX 5 7 0 0
BITMAP
70
88
F8
88
88
88
88
ENDCHAR
STARTCHAR B
ENCODING 66
SWIDTH 600 0
DWIDTH 6 0
BBX 5 7 0 0
BITMAP
F0
88
F0
88
88
88
F0
ENDCHAR
STARTCHAR C
ENCODING 67
SWIDTH 600 0
DWIDTH 6 0
BBX 5 7 0 0
BITMAP
70
88
80
80
80
88
70
ENDCHAR
STARTCHAR D
ENCODING 68
SWIDTH 600 0
DWIDTH 6 0
BBX 5 7 0 0
BITMAP
F0
88
88
88
88
88
F0
ENDCHAR
STARTCHAR E
ENCODING 69
SWIDTH 600 0
DWIDTH 6 0
BBX 5 7 0 0
BITMAP
F8
80
E0
80
80
80
F8
ENDCHAR
STARTCHAR F
ENCODING 70
SWIDTH 600 0
DWIDTH 6 0
BBX 5 7 0 0
BITMAP
F8
80
E0
80
80
80
80
ENDCHAR
STARTCHAR G
ENCODING 71
SWIDTH 600 0
DWIDTH 6 0
BBX 5 7 0 0
BITMAP
78
80
98
88
88
88
70
ENDCHAR
STARTCHAR H
ENCODING 72
SWIDTH 600 0
DWIDTH 6 0
BBX 5 7 0 0
BITMAP
88
88
F8
88
88
88
88
ENDCHAR
STARTCHAR I
ENCODING 73
SWIDTH 400 0
DWIDTH 4 0
BBX 3 7 0 0
BITMAP
E0
40
40
40
40
40
E0
ENDCHAR
STARTCHAR J
ENCODING 74
SWIDTH 600 0
DWIDTH 6 0
BBX 5 7 0 0
BITMAP
08
08
08
08
08
88
70
ENDCHAR
STARTCHAR K
ENCODING 75
SWIDTH 600 0
DWIDTH 6 0
BBX 5 7 0 0
BITMAP
88
90
E0
90
88
88
88
ENDCHAR
STARTCHAR L
ENCODING 76
SWIDTH 600 0
DWIDTH 6 0
BBX 5 7 0 0
BITMAP
80
80
80
80
80
80
F8
ENDCHAR
STARTCHAR M
ENCODING 77
SWIDTH 600 0
DWIDTH 6 0
BBX 5 7 0 0
BITMAP
88
D8
A8
88
88
88
88
ENDCHAR
STARTCHAR N
ENCODING 78
SWIDTH 600 0
DWIDTH 6 0
BBX 5 7 0 0
BITMAP
88
C8
A8
98
88
88
88
ENDCHAR
STARTCHAR O
ENCODING 79
SWIDTH 600 0
DWIDTH 6 0
BBX 5 7 0 0
BITMAP
70
88
88
88
88
88
70
ENDCHAR
STARTCHAR P
ENCODING 80
SWIDTH 600 0
DWIDTH 6 0
BBX 5 7 0 0
BITMAP
F0
88
F0
80
80
80
80
ENDCHAR
STARTCHAR Q
ENCODING 81
SWIDTH 600 0
DWIDTH 6 0
BBX 5 7 0 0
BITMAP
70
88
88
88
88
90
68
ENDCHAR
STARTCHAR R
ENCODING 82
SWIDTH 600 0
DWIDTH 6 0
BBX 5 7 0 0
BITMAP
F0
88
F0
88
88
88
88
ENDCHAR
STARTCHAR S
ENCODING 83
SWIDTH 600 0
DWIDTH 6 0
BBX 5 7 0 0
BITMAP
78
80
70
08
08
88
70
ENDCHAR
STARTCHAR T
ENCODING 84
SWIDTH 600 0
DWIDTH 6 0
BBX 5 7 0 0
BITMAP
F8
20
20
20
20
20
20
ENDCHAR
STARTCHAR U
ENCODING 85
SWIDTH 600 0
DWIDTH 6 0
BBX 5 7 0 0
BITMAP
88
88
88
88
88
88
70
ENDCHAR
STARTCHAR V
ENCODING 86
SWIDTH 600 0
DWIDTH 6 0
BBX 5 7 0 0
BITMAP
88
88
88
88
50
50
20
ENDCHAR
STARTCHAR W
ENCODING 87
SWIDTH 600 0
DWIDTH 6 0
BBX 5 7 0 0
BITMAP
88
88
88
88
A8
D8
88
ENDCHAR
STARTCHAR X
ENCODING 88
SWIDTH 600 0
DWIDTH 6 0
BBX 5 7 0 0
BITMAP
88
50
20
50
88
88
88
ENDCHAR
STARTCHAR Y
ENCODING 89
SWIDTH 600 0
DWIDTH 6 0
BBX 5 7 0 0
BITMAP
88
50
20
20
20
20
20
ENDCHAR
STARTCHAR Z
ENCODING 90
SWIDTH 600 0
DWIDTH 6 0
BBX 5 7 0 0
BITMAP
F8
08
10
20
40
80
F8
ENDCHAR
STARTCHAR bracketleft
ENCODING 91
SWIDTH 400 0
DWIDTH 4 0
BBX 3 7 0 0
BITMAP
E0
80
80
80
80
80
E0
ENDCHAR
STARTCHAR backslash
ENCODING 92
SWIDTH 600 0
DWIDTH 6 0
BBX 5 7 0 0
BITMAP
80
40
40
20
10
10
08
ENDCHAR
STARTCHAR bracketright
ENCODING 93
SWIDTH 400 0
DWIDTH 4 0
BBX 3 7 0 0
BITMAP
E0
20
20
20
20
20
E0
ENDCHAR
STARTCHAR asciicircum
ENCODING 94
SWIDTH 600 0
DWIDTH 6 0
BBX 5 3 0 4
BITMAP
20
50
88
ENDCHAR
STARTCHAR underscore
ENCODING 95
SWIDTH 600 0
DWIDTH 6 0
BBX 5 1 0 -1
BITMAP
F8
ENDCHAR
STARTCHAR a
ENCODING 97
SWIDTH 600 0
DWIDTH 6 0
BBX 5 5 0 0
BITMAP
70
08
78
88
78
ENDCHAR
STARTCHAR b
ENCODING 98
SWIDTH 600 0
DWIDTH 6 0
BBX 5 7 0 0
BITMAP
80
80
B0
C8
88
88
F0
ENDCHAR
STARTCHAR c
ENCODING 99
SWIDTH 600 0
DWIDTH 6 0
BBX 5 5 0 0
BITMAP
70
88
80
88
70
ENDCHAR
STARTCHAR d
ENCODING 100
SWIDTH 600 0
DWIDTH 6 0
BBX 5 7 0 0
BITMAP
08
08
68
98
88
88
78
ENDCHAR
STARTCHAR e
ENCODING 101
SWIDTH 600 0
DWIDTH 6 0
BBX 5 5 0 0
BITMAP
70
88
F8
80
78
ENDCHAR
STARTCHAR f
ENCODING 102
SWIDTH 500 0
DWIDTH 5 0
BBX 4 7 0 0
BITMAP
30
40
F0
40
40
40
40
ENDCHAR
STARTCHAR g
ENCODING 103
SWIDTH 600 0
DWIDTH 6 0
BBX 5 6 0 -1
BITMAP
78
88
88
78
08
F0
ENDCHAR
STARTCHAR h
ENCODING 104
SWIDTH 600 0
DWIDTH 6 0
BBX 5 7 0 0
BITMAP
80
80
B0
C8
88
88
88
ENDCHAR
STARTCHAR i
ENCODING 105
SWIDTH 200 0
DWIDTH 2 0
BBX 1 7 0 0
BITMAP
80
00
80
80
80
80
80
ENDCHAR
STARTCHAR j
ENCODING 106
SWIDTH 600 0
DWIDTH 6 0
BBX 5 8 0 -1
BITMAP
08
00
08
08
08
08
88
70
ENDCHAR
STARTCHAR k
ENCODING 107
SWIDTH 500 0
DWIDTH 5 0
BBX 4 7 0 0
BITMAP
80
80
90
A0
C0
A0
90
ENDCHAR
STARTCHAR l
ENCODING 108
SWIDTH 300 0
DWIDTH 3 0
BBX 2 7 0 0
BITMAP
80
80
80
80
80
80
40
ENDCHAR
STARTCHAR m
ENCODING 109
SWIDTH 600 0
DWIDTH 6 0
BBX 5 5 0 0
BITMAP
D0
A8
A8
88
88
ENDCHAR
STARTCHAR n
ENCODING 110
SWIDTH 600 0
DWIDTH 6 0
BBX 5 5 0 0
BITMAP
F0
88
88
88
88
ENDCHAR
STARTCHAR o
ENCODING 111
SWIDTH 600 0
DWIDTH 6 0
BBX 5 5 0 0
BITMAP
70
88
88
88
70
ENDCHAR
STARTCHAR p
ENCODING 112
SWIDTH 600 0
DWIDTH 6 0
BBX 5 6 0 -1
BITMAP
B0
C8
88
F0
80
80
ENDCHAR
STARTCHAR q
ENCODING 113
SWIDTH 600 0
DWIDTH 6 0
BBX 5 6 0 -1
BITMAP
68
98
88
78
08
08
ENDCHAR
STARTCHAR r
ENCODING 114
SWIDTH 600 0
DWIDTH 6 0
BBX 5 5 0 0
BITMAP
B0
C8
80
80
80
ENDCHAR
STARTCHAR s
ENCODING 115
SWIDTH 600 0
DWIDTH 6 0
BBX 5 5 0 0
BITMAP
78
80
70
08
F0
ENDCHAR
STARTCHAR t
ENCODING 116
SWIDTH 400 0
DWIDTH 4 0
BBX 3 7 0 0
BITMAP
40
40
E0
40
40
40
20
ENDCHAR
STARTCHAR u
ENCODING 117
SWIDTH 600 0
DWIDTH 6 0
BBX 5 5 0 0
BITMAP
88
88
88
88
78
ENDCHAR
STARTCHAR v
ENCODING 118
SWIDTH 600 0
DWIDTH 6 0
BBX 5 5 0 0
BITMAP
88
88
88
50
20
ENDCHAR
STARTCHAR w
ENCODING 119
SWIDTH 600 0
DWIDTH 6 0
BBX 5 5 0 0
BITMAP
88
88
A8
A8
78
ENDCHAR
STARTCHAR x
ENCODING 120
SWIDTH 600 0
DWIDTH 6 0
BBX 5 5 0 0
BITMAP
88
50
20
50
88
ENDCHAR
STARTCHAR y
ENCODING 121
SWIDTH 600 0
DWIDTH 6 0
BBX 5 6 0 -1
BITMAP
88
88
88
78
08
F0
ENDCHAR
STARTCHAR z
ENCODING 122
SWIDTH 600 0
DWIDTH 6 0
BBX 5 5 0 0
BITMAP
F8
10
20
40
F8
ENDCHAR
STARTCHAR braceleft
ENCODING 123
SWIDTH 500 0
DWIDTH 5 0
BBX 4 7 0 0
BITMAP
30
40
40
80
40
40
30
ENDCHAR
STARTCHAR bar
ENCODING 124
SWIDTH 200 0
DWIDTH 2 0
BBX 1 7 0 0
BITMAP
80
80
80
00
80
80
80
ENDCHAR
STARTCHAR braceright
ENCODING 125
SWIDTH 500 0
DWIDTH 5 0
BBX 4 7 0 0
BITMAP
C0
20
20
10
20
20
C0
ENDCHAR
STARTCHAR asciitilde
ENCODING 126
SWIDTH 700 0
DWIDTH 7 0
BBX 6 2 0 5
BITMAP
64
98
ENDCHAR
STARTCHAR exclamdown
ENCODING 161
SWIDTH 200 0
DWIDTH 2 0
BBX 1 6 0 0
BITMAP
80
00
80
80
80
80
ENDCHAR
STARTCHAR cent
ENCODING 162
SWIDTH 500 0
DWIDTH 5 0
BBX 4 5 0 0
BITMAP
20
70
80
70
20
ENDCHAR
STARTCHAR sterling
ENCODING 163
SWIDTH 600 0
DWIDTH 6 0
BBX 5 7 0 0
BITMAP
30
48
40
F0
40
40
F8
ENDCHAR
STARTCHAR currency
ENCODING 164
SWIDTH 400 0
DWIDTH 4 0
BBX 3 3 0 2
BITMAP
A0
40
A0
ENDCHAR
STARTCHAR section
ENCODING 167
SWIDTH 600 0
DWIDTH 6 0
BBX 5 7 0 0
BITMAP
78
80
70
88
70
08
F0
ENDCHAR
STARTCHAR guillemotleft
ENCODING 171
SWIDTH 600 0
DWIDTH 6 0
BBX 5 5 0 0
BITMAP
28
50
A0
50
28
ENDCHAR
STARTCHAR logicalnot
ENCODING 172
SWIDTH 600 0
DWIDTH 6 0
BBX 5 2 0 1
BITMAP
F8
08
ENDCHAR
STARTCHAR uni00AD
ENCODING 173
SWIDTH 300 0
DWIDTH 3 0
BBX 2 1 0 3
BITMAP
C0
ENDCHAR
STARTCHAR registered
ENCODING 174
SWIDTH 700 0
DWIDTH 7 0
BBX 6 5 0 0
BITMAP
78
B4
A4
D4
78
ENDCHAR
STARTCHAR plusminus
ENCODING 177
SWIDTH 600 0
DWIDTH 6 0
BBX 5 7 0 0
BITMAP
20
20
F8
20
20
00
F8
ENDCHAR
STARTCHAR paragraph
ENCODING 182
SWIDTH 700 0
DWIDTH 7 0
BBX 6 7 0 0
BITMAP
7C
94
94
74
14
14
14
ENDCHAR
STARTCHAR periodcentered
ENCODING 183
SWIDTH 300 0
DWIDTH 3 0
BBX 2 2 0 2
BITMAP
C0
C0
ENDCHAR
STARTCHAR cedilla
ENCODING 184
SWIDTH 400 0
DWIDTH 4 0
BBX 3 2 0 -2
BITMAP
20
C0
ENDCHAR
STARTCHAR guillemotright
ENCODING 187
SWIDTH 600 0
DWIDTH 6 0
BBX 5 5 0 0
BITMAP
A0
50
28
50
A0
ENDCHAR
STARTCHAR questiondown
ENCODING 191
SWIDTH 600 0
DWIDTH 6 0
BBX 5 7 0 0
BITMAP
20
00
20
40
80
88
70
ENDCHAR
STARTCHAR Adieresis
ENCODING 196
SWIDTH 600 0
DWIDTH 6 0
BBX 5 7 0 0
BITMAP
88
70
88
F8
88
88
88
ENDCHAR
STARTCHAR Aring
ENCODING 197
SWIDTH 600 0
DWIDTH 6 0
BBX 5 7 0 0
BITMAP
20
00
70
88
F8
88
88
ENDCHAR
STARTCHAR AE
ENCODING 198
SWIDTH 600 0
DWIDTH 6 0
BBX 5 7 0 0
BITMAP
78
A0
F0
A0
A0
A0
B8
ENDCHAR
STARTCHAR Ccedilla
ENCODING 199
SWIDTH 600 0
DWIDTH 6 0
BBX 5 9 0 -2
BITMAP
70
88
80
80
80
88
70
08
30
ENDCHAR
STARTCHAR Ntilde
ENCODING 209
SWIDTH 600 0
DWIDTH 6 0
BBX 5 7 0 0
BITMAP
F8
00
88
C8
A8
98
88
ENDCHAR
STARTCHAR Oslash
ENCODING 216
SWIDTH 600 0
DWIDTH 6 0
BBX 5 7 0 0
BITMAP
70
88
98
A8
C8
88
70
ENDCHAR
STARTCHAR Udieresis
ENCODING 220
SWIDTH 600 0
DWIDTH 6 0
BBX 5 7 0 0
BITMAP
88
00
88
88
88
88
70
ENDCHAR
STARTCHAR agrave
ENCODING 224
SWIDTH 600 0
DWIDTH 6 0
BBX 5 7 0 0
BITMAP
C0
00
70
08
78
88
78
ENDCHAR
STARTCHAR aacute
ENCODING 225
SWIDTH 600 0
DWIDTH 6 0
BBX 5 7 0 0
BITMAP
18
00
70
08
78
88
78
ENDCHAR
STARTCHAR acircumflex
ENCODING 226
SWIDTH 600 0
DWIDTH 6 0
BBX 5 7 0 0
BITMAP
70
88
70
08
78
88
78
ENDCHAR
STARTCHAR aring
ENCODING 229
SWIDTH 600 0
DWIDTH 6 0
BBX 5 7 0 0
BITMAP
20
00
70
08
78
88
78
ENDCHAR
STARTCHAR ae
ENCODING 230
SWIDTH 600 0
DWIDTH 6 0
BBX 5 5 0 0
BITMAP
50
28
70
A0
78
ENDCHAR
STARTCHAR ccedilla
ENCODING 231
SWIDTH 600 0
DWIDTH 6 0
BBX 5 7 0 -2
BITMAP
70
88
80
88
70
08
30
ENDCHAR
STARTCHAR ecircumflex
ENCODING 234
SWIDTH 600 0
DWIDTH 6 0
BBX 5 7 0 0
BITMAP
70
88
70
88
F8
80
78
ENDCHAR
STARTCHAR edieresis
ENCODING 235
SWIDTH 600 0
DWIDTH 6 0
BBX 5 7 0 0
BITMAP
50
00
70
88
F8
80
78
ENDCHAR
STARTCHAR iacute
ENCODING 237
SWIDTH 300 0
DWIDTH 3 0
BBX 2 7 0 0
BITMAP
C0
00
80
80
80
80
80
ENDCHAR
STARTCHAR icircumflex
ENCODING 238
SWIDTH 400 0
DWIDTH 4 0
BBX 3 7 0 0
BITMAP
A0
00
40
40
40
40
40
ENDCHAR
STARTCHAR ntilde
ENCODING 241
SWIDTH 600 0
DWIDTH 6 0
BBX 5 7 0 0
BITMAP
F8
00
F0
88
88
88
88
ENDCHAR
STARTCHAR ograve
ENCODING 242
SWIDTH 600 0
DWIDTH 6 0
BBX 5 7 0 0
BITMAP
C0
00
70
88
88
88
70
ENDCHAR
STARTCHAR oacute
ENCODING 243
SWIDTH 600 0
DWIDTH 6 0
BBX 5 7 0 0
BITMAP
18
00
70
88
88
88
70
ENDCHAR
STARTCHAR ocircumflex
ENCODING 244
SWIDTH 600 0
DWIDTH 6 0
BBX 5 7 0 0
BITMAP
70
88
70
88
88
88
70
ENDCHAR
STARTCHAR odieresis
ENCODING 246
SWIDTH 600 0
DWIDTH 6 0
BBX 5 7 0 0
BITMAP
50
00
70
88
88
88
70
ENDCHAR
STARTCHAR divide
ENCODING 247
SWIDTH 600 0
DWIDTH 6 0
BBX 5 5 0 1
BITMAP
20
00
F8
00
20
ENDCHAR
STARTCHAR oslash
ENCODING 248
SWIDTH 600 0
DWIDTH 6 0
BBX 5 6 0 -1
BITMAP
70
98
A8
C8
70
20
ENDCHAR
STARTCHAR ugrave
ENCODING 249
SWIDTH 600 0
DWIDTH 6 0
BBX 5 7 0 0
BITMAP
C0
00
88
88
88
88
78
ENDCHAR
STARTCHAR uacute
ENCODING 250
SWIDTH 600 0
DWIDTH 6 0
BBX 5 7 0 0
BITMAP
18
00
88
88
88
88
78
ENDCHAR
STARTCHAR ucircumflex
ENCODING 251
SWIDTH 600 0
DWIDTH 6 0
BBX 5 7 0 0
BITMAP
70
88
00
88
88
88
78
ENDCHAR
STARTCHAR udieresis
ENCODING 252
SWIDTH 600 0
DWIDTH 6 0
BBX 5 7 0 0
BITMAP
50
00
88
88
88
88
78
ENDCHAR
STARTCHAR ydieresis
ENCODING 255
SWIDTH 600 0
DWIDTH 6 0
BBX 5 8 0 -1
BITMAP
50
00
88
88
88
78
08
F0
ENDCHAR
STARTCHAR florin
ENCODING 402
SWIDTH 600 0
DWIDTH 6 0
BBX 5 7 0 0
BITMAP
10
28
20
70
20
A0
40
ENDCHAR
STARTCHAR uni03A9
ENCODING 937
SWIDTH 600 0
DWIDTH 6 0
BBX 5 7 0 0
BITMAP
70
88
88
88
88
50
D8
ENDCHAR
STARTCHAR emdash
ENCODING 8212
SWIDTH 600 0
DWIDTH 6 0
BBX 5 1 0 3
BITMAP
F8
ENDCHAR
STARTCHAR bullet
ENCODING 8226
SWIDTH 300 0
DWIDTH 3 0
BBX 2 2 0 2
BITMAP
C0
C0
ENDCHAR
STARTCHAR summation
ENCODING 8721
SWIDTH 600 0
DWIDTH 6 0
BBX 5 7 0 0
BITMAP
F8
88
40
20
40
88
F8
ENDCHAR
STARTCHAR radical
ENCODING 8730
SWIDTH 900 0
DWIDTH 9 0
BBX 8 7 0 0
BITMAP
0F
0C
0C
EC
6C
3C
1C
ENDCHAR
STARTCHAR infinity
ENCODING 8734
SWIDTH 800 0
DWIDTH 8 0
BBX 7 4 0 1
BITMAP
6C
92
92
6C
ENDCHAR
STARTCHAR approxequal
ENCODING 8776
SWIDTH 800 0
DWIDTH 8 0
BBX 7 5 0 1
BITMAP
76
DC
00
76
DC
ENDCHAR
STARTCHAR house
ENCODING 8962
SWIDTH 600 0
DWIDTH 6 0
BBX 5 5 0 0
BITMAP
20
50
88
88
F8
ENDCHAR
STARTCHAR smileface
ENCODING 9786
SWIDTH 900 0
DWIDTH 9 0
BBX 8 8 0 -1
BITMAP
7E
81
A5
81
BD
99
81
7E
ENDCHAR
STARTCHAR invsmileface
ENCODING 9787
SWIDTH 900 0
DWIDTH 9 0
BBX 8 8 0 -1
BITMAP
7E
FF
DB
FF
C3
E7
FF
7E
ENDCHAR
STARTCHAR sun
ENCODING 9788
SWIDTH 900 0
DWIDTH 9 0
BBX 8 8 0 -1
BITMAP
99
5A
3C
E7
E7
3C
5A
99
ENDCHAR
STARTCHAR female
ENCODING 9792
SWIDTH 600 0
DWIDTH 6 0
BBX 5 8 0 -1
BITMAP
70
88
88
88
70
20
70
20
ENDCHAR
STARTCHAR male
ENCODING 9794
SWIDTH 800 0
DWIDTH 8 0
BBX 7 8 0 -1
BITMAP
0E
06
0A
70
88
88
88
70
ENDCHAR
STARTCHAR spade
ENCODING 9824
SWIDTH 800 0
DWIDTH 8 0
BBX 7 8 0 -1
BITMAP
10
10
38
7C
FE
7C
38
7C
ENDCHAR
STARTCHAR club
ENCODING 9827
SWIDTH 800 0
DWIDTH 8 0
BBX 7 8 0 -1
BITMAP
38
7C
38
FE
FE
7C
38
7C
ENDCHAR
STARTCHAR heart
ENCODING 9829
SWIDTH 800 0
DWIDTH 8 0
BBX 7 7 0 0
BITMAP
6C
FE
FE
FE
7C
38
10
ENDCHAR
STARTCHAR diamond
ENCODING 9830
SWIDTH 800 0
DWIDTH 8 0
BBX 7 7 0 0
BITMAP
10
38
7C
FE
7C
38
10
ENDCHAR
STARTCHAR .notdef
ENCODING -1
SWIDTH 100 0
DWIDTH 1 0
BBX 1 1 0 0
BITMAP
00
ENDCHAR
ENDFONT
